<?xml version="1.0" standalone="no"?>
<!DOCTYPE svg PUBLIC "-//W3C//DTD SVG 20010904//EN"
 "http://www.w3.org/TR/2001/REC-SVG-20010904/DTD/svg10.dtd">
<svg version="1.0" xmlns="http://www.w3.org/2000/svg"
 viewBox="0 0 512.000000 512.000000"
 preserveAspectRatio="xMidYMid meet">
<metadata>
Original png by Apathetic Tools 2025
Transformed into svg by potrace 1.10, written by Peter Selinger 2001-2011
</metadata>
<g transform="translate(0.000000,512.000000) scale(0.100000,-0.100000)"
fill="#000000" stroke="none">
<path d="M1930 4590 c-178 -26 -327 -73 -495 -156 -189 -93 -251 -134 -394
-258 -418 -365 -636 -862 -619 -1413 20 -626 354 -1179 906 -1500 126 -73 324
-154 437 -178 44 -9 109 -23 145 -31 38 -9 147 -17 260 -20 205 -6 266 1 500
55 160 37 468 179 565 261 16 14 57 46 90 70 129 95 346 340 420 475 15 28 36
62 46 77 11 14 19 29 19 32 0 3 13 34 29 68 29 61 51 120 92 241 11 32 31 124
44 205 34 204 34 402 0 607 -23 138 -66 297 -86 320 -5 5 -9 16 -9 24 0 21
-79 190 -112 238 -15 23 -28 45 -28 48 0 4 -27 46 -60 95 -71 103 -283 322
-391 402 -71 54 -271 178 -287 178 -4 0 -27 11 -52 24 -41 21 -194 76 -295
106 -164 47 -513 62 -725 30z m610 -80 c233 -45 456 -139 652 -277 188 -132
298 -241 429 -426 135 -190 225 -400 276 -645 24 -114 27 -149 28 -337 0 -239
-19 -366 -82 -550 -36 -104 -108 -269 -128 -295 -7 -8 -25 -37 -41 -65 -130
-228 -424 -499 -681 -628 -439 -222 -950 -247 -1401 -71 -202 78 -342 163
-497 299 -251 220 -399 435 -510 740 -20 54 -41 120 -45 145 -5 25 -18 96 -29
159 -34 183 -25 468 20 636 6 22 13 52 15 67 1 16 15 61 30 100 15 40 33 90
40 111 66 181 235 428 402 588 248 237 558 396 892 455 118 20 159 23 325 20
143 -3 219 -9 305 -26z"/>
<path d="M2694 3660 c-70 -34 -121 -85 -161 -162 -25 -47 -28 -64 -28 -148 0
-82 4 -102 25 -144 82 -160 240 -232 394 -180 64 22 148 101 183 172 25 50 28
68 28 152 0 85 -3 101 -29 150 -87 168 -258 234 -412 160z m214 -55 c47 -20
108 -79 134 -130 29 -56 36 -162 14 -219 -43 -113 -127 -176 -235 -176 -90 0
-179 58 -225 148 -23 44 -22 191 1 240 22 46 87 112 133 134 44 22 129 23 178
3z"/>
<path d="M1290 3644 c-123 -56 -190 -166 -190 -312 0 -106 24 -167 93 -239 69
-72 135 -103 222 -103 87 0 153 31 222 103 47 49 64 75 77 119 30 103 16 232
-33 312 -80 129 -254 182 -391 120z m228 -68 c123 -63 176 -208 125 -348 -50
-141 -197 -205 -329 -144 -151 70 -192 292 -80 432 64 81 190 108 284 60z"/>
<path d="M1112 2181 c-8 -4 -12 -19 -10 -32 l3 -24 983 -3 c666 -1 989 1 1003
8 11 6 19 21 19 35 l0 25 -992 0 c-546 0 -999 -4 -1006 -9z"/>
</g>
</svg>
